<?xml version="1.0" standalone="no"?>
<!DOCTYPE svg PUBLIC "-//W3C//DTD SVG 20010904//EN"
 "http://www.w3.org/TR/2001/REC-SVG-20010904/DTD/svg10.dtd">
<svg version="1.0" xmlns="http://www.w3.org/2000/svg"
 width="500.000000pt" height="500.000000pt" viewBox="0 0 500.000000 500.000000"
 preserveAspectRatio="xMidYMid meet">
<metadata>
Created by potrace 1.11, written by Peter Selinger 2001-2013
</metadata>
<g transform="translate(0.000000,500.000000) scale(0.100000,-0.100000)"
fill="#000000" stroke="none">
<path d="M789 4101 c-95 -19 -225 -114 -276 -201 -55 -94 -56 -102 -58 -572
l-1 -436 130 -4 c148 -4 182 -16 247 -85 57 -60 72 -113 73 -261 l1 -127 1599
0 1599 0 2 115 c2 153 22 211 99 284 57 53 110 70 234 74 l112 4 1 27 c5 136
2 780 -4 826 -21 168 -157 315 -328 354 -51 12 -3371 13 -3430 2z m1066 -545
c132 -25 237 -153 236 -289 0 -138 -78 -249 -204 -292 -49 -17 -213 -23 -258
-11 -111 32 -209 131 -227 230 -33 176 79 339 249 364 63 9 150 8 204 -2z
m1544 -7 c89 -28 173 -112 201 -202 18 -58 9 -163 -19 -217 -43 -84 -121 -145
-211 -165 -47 -11 -185 -7 -235 6 -100 26 -183 111 -210 214 -45 174 73 352
250 374 69 9 180 4 224 -10z"/>
<path d="M1621 3413 c-120 -71 -112 -245 13 -310 43 -22 172 -21 216 2 135 69
131 256 -6 316 -63 28 -169 25 -223 -8z"/>
<path d="M3152 3419 c-63 -32 -106 -106 -96 -166 9 -58 15 -72 40 -102 39 -47
85 -64 168 -64 93 1 145 25 181 86 42 73 30 162 -31 219 -39 36 -66 45 -149
47 -54 1 -80 -3 -113 -20z"/>
<path d="M235 2770 c-55 -3 -112 -11 -126 -17 -36 -16 -86 -76 -99 -120 -8
-27 -10 -274 -8 -823 3 -770 3 -786 23 -820 12 -19 40 -48 64 -65 l43 -30 240
-3 c240 -3 241 -3 293 22 41 21 57 36 79 76 l27 50 0 790 c0 850 2 815 -50
877 -42 50 -86 62 -241 65 -80 2 -190 1 -245 -2z"/>
<path d="M4450 2769 c-47 -3 -97 -10 -112 -16 -46 -20 -92 -79 -105 -133 -1
-8 -3 -367 -3 -797 -1 -755 0 -784 19 -820 24 -48 56 -78 103 -98 30 -12 82
-15 266 -15 216 0 230 1 272 23 26 13 57 40 75 65 l30 44 3 791 c3 889 6 846
-70 911 -27 23 -55 37 -82 41 -60 8 -298 11 -396 4z"/>
<path d="M1095 2267 c-55 -9 -115 -44 -143 -84 -47 -66 -48 -81 -47 -615 2
-553 1 -540 64 -604 17 -18 48 -40 69 -50 35 -18 96 -19 1452 -22 1045 -2
1426 0 1457 9 56 15 115 68 143 126 22 47 22 51 22 554 0 480 -1 509 -19 550
-24 54 -87 112 -139 130 -31 10 -321 13 -1425 13 -763 1 -1408 -3 -1434 -7z"/>
</g>
</svg>
