<?xml version="1.0" encoding="UTF-8" standalone="no"?>
<!-- Created with Inkscape (http://www.inkscape.org/) -->

<svg
   xmlns:dc="http://purl.org/dc/elements/1.1/"
   xmlns:cc="http://creativecommons.org/ns#"
   xmlns:rdf="http://www.w3.org/1999/02/22-rdf-syntax-ns#"
   xmlns:svg="http://www.w3.org/2000/svg"
   xmlns="http://www.w3.org/2000/svg"
   xmlns:sodipodi="http://sodipodi.sourceforge.net/DTD/sodipodi-0.dtd"
   xmlns:inkscape="http://www.inkscape.org/namespaces/inkscape"
   width="48.785332mm"
   height="48.785332mm"
   viewBox="0 0 48.785332 48.785331"
   version="1.1"
   id="svg8"
   inkscape:version="0.92.4 (5da689c313, 2019-01-14)"
   sodipodi:docname="logo.svg">
  <defs
     id="defs2" />
  <sodipodi:namedview
     id="base"
     pagecolor="#ffffff"
     bordercolor="#666666"
     borderopacity="1.0"
     inkscape:pageopacity="0.0"
     inkscape:pageshadow="2"
     inkscape:zoom="5.6568543"
     inkscape:cx="101.31741"
     inkscape:cy="84.767706"
     inkscape:document-units="mm"
     inkscape:current-layer="layer1"
     showgrid="false"
     inkscape:snap-global="true"
     fit-margin-top="0"
     fit-margin-left="0"
     fit-margin-right="0"
     fit-margin-bottom="0"
     inkscape:window-width="1920"
     inkscape:window-height="1017"
     inkscape:window-x="-8"
     inkscape:window-y="-8"
     inkscape:window-maximized="1"
     showguides="false"
     inkscape:pagecheckerboard="true" />
  <metadata
     id="metadata5">
    <rdf:RDF>
      <cc:Work
         rdf:about="">
        <dc:format>image/svg+xml</dc:format>
        <dc:type
           rdf:resource="http://purl.org/dc/dcmitype/StillImage" />
        <dc:title></dc:title>
      </cc:Work>
    </rdf:RDF>
  </metadata>
  <g
     inkscape:label="Layer 1"
     inkscape:groupmode="layer"
     id="layer1"
     transform="translate(-79.838402,-124.39663)">
    <path
       style="fill:#009ff7;fill-opacity:1;stroke:none;stroke-width:0.88191754;stroke-miterlimit:4;stroke-dasharray:none;stroke-opacity:0"
       d="m 88.428331,133.08002 c -2.305679,0 -4.161504,1.85634 -4.161503,4.16202 v 7.73544 h 1.793688 c 1.434377,0 2.589507,1.15461 2.589507,2.58899 v 2.08566 h 31.233237 v -1.76527 c 0,-1.61215 1.29774,-2.9099 2.9099,-2.9099 h 1.47329 v -7.73492 c 0,-2.30568 -1.85582,-4.16202 -4.1615,-4.16202 z m 7.967989,5.33404 h 0.92139 c 1.635408,0 2.95176,1.31635 2.95176,2.95176 0,1.6354 -1.316352,2.95227 -2.95176,2.95227 h -0.92139 c -1.635408,0 -2.951758,-1.31687 -2.951758,-2.95227 0,-1.63541 1.31635,-2.95176 2.951758,-2.95176 z m 14.8177,0 h 0.92191 c 0.20441,0 0.40384,0.0207 0.59634,0.0599 0.0962,0.0196 0.19064,0.0437 0.28319,0.0724 0.27763,0.086 0.5376,0.2117 0.77308,0.37052 0.0785,0.0529 0.15402,0.10944 0.22686,0.1695 0.0729,0.0601 0.14303,0.12389 0.2098,0.19068 0.20009,0.20009 0.37146,0.42855 0.50747,0.67955 0.0453,0.0837 0.0868,0.16952 0.12402,0.25786 0.0373,0.0885 0.07,0.17913 0.0987,0.27182 0.0535,0.17274 0.0905,0.35303 0.11162,0.53795 0.0129,0.1123 0.0207,0.22625 0.0207,0.3421 -2e-5,0.10203 -0.005,0.203 -0.015,0.30231 -0.02,0.19878 -0.0601,0.39176 -0.1173,0.57671 -0.0287,0.0925 -0.0615,0.18346 -0.0987,0.27182 -0.0372,0.0882 -0.0788,0.17432 -0.12402,0.25786 -0.136,0.25103 -0.30739,0.47994 -0.50746,0.68006 -0.13339,0.13339 -0.27968,0.2543 -0.43667,0.36019 -0.31397,0.21182 -0.67126,0.36446 -1.05626,0.44287 -0.19251,0.0392 -0.39193,0.0599 -0.59635,0.0599 h -0.92191 c -0.20442,0 -0.40384,-0.0207 -0.59634,-0.0599 -0.19267,-0.0392 -0.37818,-0.097 -0.55501,-0.17157 -0.0883,-0.0373 -0.1742,-0.0787 -0.25786,-0.12402 -0.0837,-0.0453 -0.1649,-0.0943 -0.2434,-0.14728 -0.15699,-0.10589 -0.30328,-0.2268 -0.43667,-0.36019 -0.13349,-0.13349 -0.25372,-0.27953 -0.35967,-0.43666 -0.0528,-0.0783 -0.10203,-0.15943 -0.14727,-0.24288 0,0 -5.3e-4,-5.3e-4 -5.3e-4,-5.3e-4 -0.0785,-0.14493 -0.14266,-0.29838 -0.19637,-0.45682 -0.008,-0.0245 -0.0187,-0.048 -0.0264,-0.0729 -0.0286,-0.0924 -0.0528,-0.18659 -0.0723,-0.28267 0,0 0,-5.3e-4 0,-5.3e-4 -0.0196,-0.0963 -0.0349,-0.19405 -0.045,-0.29353 -0.01,-0.0995 -0.015,-0.20009 -0.015,-0.3023 v -5.3e-4 c 0,-0.10204 0.005,-0.203 0.015,-0.30231 0,0 0,-5.3e-4 0,-5.3e-4 0.01,-0.0995 0.0254,-0.19727 0.045,-0.29352 0.0196,-0.0962 0.0437,-0.19064 0.0723,-0.28319 0.086,-0.27762 0.21171,-0.5376 0.37052,-0.77308 0.10589,-0.15699 0.22629,-0.30276 0.35967,-0.43615 0.0668,-0.0668 0.13688,-0.13054 0.20981,-0.19068 0.0728,-0.0601 0.14836,-0.11656 0.22686,-0.1695 0.23548,-0.15882 0.49545,-0.28454 0.77308,-0.37052 0.0925,-0.0287 0.18693,-0.0528 0.28319,-0.0724 0.1925,-0.0392 0.39192,-0.0599 0.59634,-0.0599 z"
       id="rect4554"
       inkscape:connector-curvature="0" />
    <rect
       style="fill:#009ff7;fill-opacity:1;stroke:none;stroke-width:1.08131552;stroke-miterlimit:4;stroke-dasharray:none;stroke-opacity:0"
       id="rect4556"
       width="13.498921"
       height="31.307981"
       x="150.99944"
       y="-119.96722"
       ry="2.2758017"
       transform="rotate(90)" />
    <rect
       ry="1.9049995"
       y="146.1351"
       x="121.09145"
       height="18.363472"
       width="7.5322766"
       id="rect844"
       style="fill:#009ff7;fill-opacity:1;stroke:none;stroke-width:1.07564163;stroke-miterlimit:4;stroke-dasharray:none;stroke-opacity:1" />
    <rect
       style="fill:#009ff7;fill-opacity:1;stroke:none;stroke-width:1.07564163;stroke-miterlimit:4;stroke-dasharray:none;stroke-opacity:1"
       id="rect847"
       width="7.5322766"
       height="18.363472"
       x="79.838402"
       y="146.1351"
       ry="1.9049995" />
    <rect
       ry="1.7257963"
       y="139.62088"
       x="109.63914"
       height="3.4515927"
       width="4.0757947"
       id="rect849"
       style="fill:#009ff7;fill-opacity:1;stroke:none;stroke-width:1.02898717;stroke-miterlimit:4;stroke-dasharray:none;stroke-opacity:1" />
    <rect
       style="fill:#009ff7;fill-opacity:1;stroke:none;stroke-width:1.02898717;stroke-miterlimit:4;stroke-dasharray:none;stroke-opacity:1"
       id="rect857"
       width="4.0757947"
       height="3.4515927"
       x="94.795067"
       y="139.62088"
       ry="1.7257963" />
  </g>
</svg>
